<svg id="Layer_1" data-name="Layer 1" xmlns="http://www.w3.org/2000/svg" viewBox="0 0 358 520"><defs><style>.cls-1{fill:#58595b;}.cls-2{fill:#414042;}.cls-3{fill:#4c4c4e;}.cls-4{fill:none;stroke:#4c4c4e;stroke-miterlimit:10;stroke-width:0.15px;}.cls-5{fill:#231f20;}</style></defs><title>Artboard 1carddeck_top_shadow_319x498</title><rect class="cls-1" x="21.64" y="7.37" width="314.72" height="493.02" transform="translate(12.89 -8.61) rotate(2.86)"/><rect class="cls-2" x="19.33" y="22.49" width="319.33" height="485.28" transform="translate(-21.37 15.75) rotate(-4.76)"/><rect class="cls-1" x="15.37" y="8.39" width="321.13" height="490.69" transform="translate(-6.17 4.39) rotate(-1.41)"/><rect class="cls-1" x="21.64" y="7.37" width="314.72" height="493.02" transform="translate(12.89 -8.61) rotate(2.86)"/><rect class="cls-2" x="19.33" y="22.49" width="319.33" height="485.28" transform="translate(-21.37 15.75) rotate(-4.76)"/><rect class="cls-1" x="15.37" y="8.39" width="321.13" height="490.69" transform="translate(-6.17 4.39) rotate(-1.41)"/><rect class="cls-3" x="18.21" y="5.37" width="319" height="498"/><rect class="cls-4" x="18.21" y="5.37" width="319" height="498"/><path class="cls-5" d="M46.36,56.2c-2.91,0-5.39-1.85-5.39-5.09S43.45,46,46.36,46s5.39,1.85,5.39,5.09-2.48,5.09-5.39,5.09m-4,.74h4.1v3.22H57.36v3.61h-15ZM46.4,49.6a1.5,1.5,0,1,0,1.52,1.5,1.48,1.48,0,0,0-1.52-1.5m7.06-4h3.9v3.71h1.76V53H57.36v4.68h-3.9Z"/><path class="cls-5" d="M49.4,78.59a3.67,3.67,0,0,1-3.92,3.88,3.8,3.8,0,0,1-4-4.1v-8a3.87,3.87,0,0,1,4.12-4.1,3.59,3.59,0,0,1,3.82,3.88v2.07h.68V65.89H53.6V84H50.09v-7.9H49.4ZM46,70.38a.39.39,0,0,0-.78,0v8a.39.39,0,1,0,.78,0Zm8.33-4.49h3.57V84H54.28Z"/><path class="cls-5" d="M42.65,103.14l-2.22-3.28c2.32-1.72,4.1-3.71,4.1-8.57V86.75h4.29v4.55c0,4.86,1.78,6.85,4.1,8.57l-2.22,3.28a13,13,0,0,1-4-4.55,13,13,0,0,1-4,4.55m8.18-11h2.83v-6h4v18.15h-4V95.86H50.83Z"/><path class="cls-5" d="M41.46,112.56h3.9v1.56h2.26v-1.56h3.84v10h-10Zm.88,10.73h4.1v3.41H57.36v3.61h-15Zm3-4.2h2.26v-1.85H45.36Zm8.1-6.93h3.9v3.71h1.76v3.71H57.36v4.68h-3.9Z"/><path class="cls-5" d="M58.44,31a8.72,8.72,0,0,0-1.72-2.9,9,9,0,0,0-6.88-2.83A8.92,8.92,0,0,0,43,28.13,8.73,8.73,0,0,0,41.26,31a9.92,9.92,0,0,0,0,6.63A8.73,8.73,0,0,0,43,40.57a8.92,8.92,0,0,0,6.86,2.83,9,9,0,0,0,6.88-2.83,8.72,8.72,0,0,0,1.72-2.9,9.91,9.91,0,0,0,0-6.63m-2.06,3.32a6.14,6.14,0,0,1-6.54,6.42,6.13,6.13,0,0,1-6.52-6.42,6.13,6.13,0,0,1,6.52-6.42,6.14,6.14,0,0,1,6.54,6.42"/><path class="cls-5" d="M39.45,142.65q1.72-.65,3-1.24a17.2,17.2,0,0,0,2.26-1.21,10.48,10.48,0,0,0,1.72-1.37,9.93,9.93,0,0,0,1.37-1.73A18.65,18.65,0,0,0,49,134.81q.58-1.3,1.24-3,.65,1.75,1.24,3a18.58,18.58,0,0,0,1.21,2.28,9.58,9.58,0,0,0,3.07,3.1A17.84,17.84,0,0,0,58,141.41q1.28.58,3,1.24-1.72.67-3,1.24a17.32,17.32,0,0,0-2.26,1.21,9.58,9.58,0,0,0-3.07,3.1,18.58,18.58,0,0,0-1.21,2.28q-.58,1.3-1.24,3-.67-1.75-1.24-3a18,18,0,0,0-1.2-2.28,9.93,9.93,0,0,0-1.37-1.73,10.49,10.49,0,0,0-1.72-1.37,17.26,17.26,0,0,0-2.26-1.21q-1.29-.58-3-1.24"/><path class="cls-5" d="M208.92,227.31a15.11,15.11,0,0,0-3-5,16.88,16.88,0,0,0-23.8,0,15.12,15.12,0,0,0-3,5,17.18,17.18,0,0,0,0,11.49,15.13,15.13,0,0,0,3,5,16.88,16.88,0,0,0,23.8,0,15.11,15.11,0,0,0,3-5,17.17,17.17,0,0,0,0-11.49m-3.57,5.75c0,5.54-3.5,11.13-11.33,11.13s-11.3-5.59-11.3-11.13,3.49-11.13,11.3-11.13,11.33,5.59,11.33,11.13"/><path class="cls-5" d="M145.51,262.66q3-1.13,5.21-2.14a29.8,29.8,0,0,0,3.92-2.1,18.15,18.15,0,0,0,3-2.38,17.19,17.19,0,0,0,2.37-3,32.31,32.31,0,0,0,2.09-4q1-2.25,2.14-5.27,1.13,3,2.14,5.27a32.18,32.18,0,0,0,2.09,4,16.6,16.6,0,0,0,5.33,5.38,30.91,30.91,0,0,0,3.92,2.1q2.22,1,5.19,2.14-3,1.16-5.19,2.16a30,30,0,0,0-3.92,2.09,16.6,16.6,0,0,0-5.33,5.38,32.18,32.18,0,0,0-2.09,4q-1,2.25-2.14,5.27-1.16-3-2.16-5.27a31.22,31.22,0,0,0-2.08-4,17.21,17.21,0,0,0-2.37-3,18.18,18.18,0,0,0-3-2.38,29.91,29.91,0,0,0-3.92-2.1q-2.24-1-5.21-2.14"/><path class="cls-5" d="M307.54,445.4c2.91,0,5.39,1.85,5.39,5.09s-2.48,5.09-5.39,5.09-5.39-1.85-5.39-5.09,2.48-5.09,5.39-5.09m4-.74h-4.1v-3.22H296.53v-3.61h15ZM307.5,452a1.5,1.5,0,1,0-1.52-1.5,1.48,1.48,0,0,0,1.52,1.5m-7.06,4h-3.9v-3.71h-1.76v-3.71h1.76v-4.68h3.9Z"/><path class="cls-5" d="M304.49,423a3.67,3.67,0,0,1,3.92-3.88,3.8,3.8,0,0,1,4,4.1v8a3.87,3.87,0,0,1-4.12,4.1,3.59,3.59,0,0,1-3.82-3.88v-2.07h-.68v6.34H300.3V417.56h3.51v7.9h.68Zm3.45,8.21a.39.39,0,0,0,.78,0v-8a.39.39,0,1,0-.78,0Zm-8.33,4.49H296V417.56h3.57Z"/><path class="cls-5" d="M311.25,398.46l2.22,3.28c-2.32,1.72-4.1,3.71-4.1,8.57v4.55h-4.29V410.3c0-4.86-1.78-6.85-4.1-8.57l2.22-3.28a13,13,0,0,1,4,4.55,13,13,0,0,1,4-4.55m-8.18,11h-2.83v6h-4V397.29h4v8.45h2.83Z"/><path class="cls-5" d="M312.44,389h-3.9v-1.56h-2.26V389h-3.84v-10h10Zm-.88-10.73h-4.1v-3.41H296.53v-3.61h15Zm-3,4.2h-2.26v1.85h2.26Zm-8.1,6.93h-3.9v-3.71h-1.76V382h1.76v-4.68h3.9Z"/><path class="cls-5" d="M295.46,470.56a8.72,8.72,0,0,0,1.72,2.9,9.74,9.74,0,0,0,13.74,0,8.73,8.73,0,0,0,1.72-2.9,9.92,9.92,0,0,0,0-6.63,8.73,8.73,0,0,0-1.72-2.9,9.74,9.74,0,0,0-13.74,0,8.72,8.72,0,0,0-1.72,2.9,9.91,9.91,0,0,0,0,6.63m2.06-3.32a6.53,6.53,0,1,1,6.54,6.42,6.14,6.14,0,0,1-6.54-6.42"/><path class="cls-5" d="M314.45,358.95q-1.72.65-3,1.24a17.2,17.2,0,0,0-2.26,1.21,10.48,10.48,0,0,0-1.72,1.37,9.93,9.93,0,0,0-1.37,1.73,18.65,18.65,0,0,0-1.21,2.28q-.58,1.3-1.24,3-.65-1.75-1.24-3a18.58,18.58,0,0,0-1.21-2.28,9.58,9.58,0,0,0-3.07-3.1,17.84,17.84,0,0,0-2.26-1.21q-1.28-.58-3-1.24,1.72-.67,3-1.24a17.32,17.32,0,0,0,2.26-1.21,9.58,9.58,0,0,0,3.07-3.1,18.58,18.58,0,0,0,1.21-2.28q.58-1.3,1.24-3,.67,1.75,1.24,3a18,18,0,0,0,1.2,2.28,9.93,9.93,0,0,0,1.37,1.73,10.49,10.49,0,0,0,1.72,1.37,17.26,17.26,0,0,0,2.26,1.21q1.29.58,3,1.24"/></svg>